<svg width="454" height="332" viewBox="0 0 454 332" fill="none" xmlns="http://www.w3.org/2000/svg">
<g clip-path="url(#clip0)">
<path d="M391.569 232.625C387.04 233.553 379.31 233.706 370.434 233.424C346.299 232.661 313.666 228.724 313.666 228.724C313.666 228.724 144.589 217.153 27.3052 146.534C27.3052 146.534 10.5587 134.209 29.4019 123.925C32.2946 122.4 35.3158 121.133 38.4306 120.139L38.6683 119.964C40.8596 118.479 43.179 117.194 45.599 116.123C52.7208 112.915 64.4249 109.609 77.4068 113.892L397.965 217.171C397.965 217.171 408.422 229.154 391.569 232.625Z" fill="#FFBA08"/>
<path d="M329.757 198.532L406.005 160.144L435.529 170.014L397.965 217.171C397.965 217.171 329.236 207.264 329.757 198.532Z" fill="#FFBA08"/>
<path d="M161.06 142.456L303.971 124.856L325.357 132.843L259.202 151.292L236.554 170.015L161.06 142.456Z" fill="#FFBA08"/>
<path d="M370.434 233.424C346.299 232.661 313.666 228.724 313.666 228.724C313.666 228.724 144.589 217.153 27.3052 146.534C27.3052 146.534 10.5587 134.209 29.4019 123.925L29.4229 124.17C29.4229 124.17 53.6415 146.553 180.331 181.457L370.434 233.424Z" fill="#F5F8FA"/>
<path d="M348.566 229.014L406.022 263.393L421.675 264.028L389.227 230.87C389.227 230.87 346.339 214.648 348.566 229.014Z" fill="#FFBA08"/>
<path d="M51.2328 130.231C48.3023 129.834 42.3522 123.906 38.6902 119.967C40.8815 118.483 43.201 117.197 45.6209 116.127C48.5857 119.217 53.9234 124.302 57.2707 124.645C62.0981 125.178 55.6471 130.822 51.2328 130.231Z" fill="#F5F8FA"/>
<path d="M308.442 311.483L268.789 307.551L169.557 216.042L151.136 199.052L142.19 190.797C163.311 177.83 236.327 211.274 236.327 211.274C237.6 212.731 237.753 214.854 237.342 217.111C236.568 221.336 233.816 226.015 232.775 227.691C232.524 228.102 232.374 228.318 232.374 228.318L308.442 311.483Z" fill="#FFBA08"/>
<path d="M400.286 132.559L392.803 135.843L398.084 128.946C397.056 127.833 395.686 127.094 394.191 126.847L394.081 126.83C393.607 126.768 393.139 126.66 392.684 126.51L390.152 127.626L391.414 125.975C389.866 125.151 388.617 123.859 387.844 122.284L383.313 124.291L386.644 119.934C384.672 116.662 381.687 114.386 378.101 113.84C373.804 113.186 369.587 115.16 366.508 118.773C365.594 119.856 364.409 120.677 363.074 121.153C361.739 121.629 360.303 121.742 358.91 121.482L358.682 121.447C353.937 120.724 349.273 125.521 348.261 132.165C347.249 138.808 350.274 144.776 355.018 145.499C356.061 145.654 357.127 145.553 358.122 145.203C359.857 144.664 361.687 144.509 363.488 144.748C365.288 144.986 367.015 145.613 368.55 146.585C369.844 147.421 371.3 147.975 372.822 148.211C374.345 148.447 375.9 148.359 377.386 147.953C379.125 147.494 380.942 147.414 382.714 147.719C384.486 148.024 386.172 148.706 387.658 149.72C388.5 150.337 389.477 150.744 390.508 150.905C395.253 151.628 399.918 146.831 400.93 140.188C401.358 137.631 401.137 135.008 400.286 132.559Z" fill="#F5F8FA"/>
<path opacity="0.03" d="M384.768 148.201C382.361 147.354 379.757 147.242 377.285 147.879C375.801 148.291 374.246 148.383 372.724 148.151C371.201 147.919 369.745 147.368 368.45 146.533C366.916 145.56 365.189 144.932 363.388 144.693C361.587 144.455 359.756 144.611 358.022 145.152C357.025 145.5 355.958 145.601 354.914 145.447C350.7 144.805 347.841 140.018 347.967 134.3C348.903 133.816 349.736 133.153 350.42 132.35C353.498 128.741 357.715 126.767 362.011 127.421C366.308 128.076 369.715 131.157 371.579 135.487C372.135 136.795 373.02 137.936 374.148 138.799C375.276 139.661 376.608 140.217 378.015 140.411L378.124 140.427C381.457 140.926 383.953 144.058 384.768 148.201Z" fill="black"/>
<path d="M120.867 74.0847L117.137 75.7239L119.771 72.2858C119.259 71.7279 118.576 71.3579 117.829 71.2347L117.777 71.2267C117.54 71.1931 117.306 71.1395 117.078 71.0664L115.817 71.6206L116.442 70.8167C115.67 70.4062 115.047 69.7622 114.661 68.9764L112.402 69.9809L114.08 67.8132C113.64 67.021 113.03 66.3369 112.292 65.8108C111.555 65.2848 110.71 64.93 109.818 64.7724C107.677 64.4461 105.573 65.4295 104.054 67.2347C103.597 67.7764 103.005 68.1869 102.337 68.4241C101.67 68.6614 100.952 68.7168 100.256 68.5847L100.142 68.5674C97.776 68.207 95.4483 70.6038 94.9437 73.9168C94.439 77.2297 95.9481 80.2065 98.3138 80.5669C98.8344 80.6445 99.366 80.5943 99.863 80.4207C100.728 80.1508 101.642 80.0727 102.541 80.1917C103.439 80.3107 104.301 80.6241 105.066 81.11C105.71 81.5226 106.434 81.7953 107.19 81.9105C107.946 82.0257 108.718 81.9807 109.455 81.7785C110.323 81.5491 111.23 81.5093 112.114 81.6618C112.998 81.8144 113.839 82.1557 114.58 82.6625C115 82.9682 115.486 83.1702 115.999 83.2519C118.365 83.6122 120.692 81.2198 121.196 77.9068C121.408 76.6252 121.295 75.3108 120.867 74.0847Z" fill="#F5F8FA"/>
<path opacity="0.03" d="M113.126 81.8881C111.925 81.4625 110.624 81.4069 109.391 81.7283C108.653 81.9286 107.882 81.9734 107.126 81.8598C106.361 81.7431 105.631 81.4647 104.982 81.0432C104.216 80.5588 103.354 80.2466 102.456 80.1284C101.557 80.0102 100.644 80.0886 99.7782 80.3584C99.2828 80.5322 98.7526 80.5825 98.2335 80.5052C96.1311 80.1849 94.7031 77.796 94.7645 74.946C95.2308 74.7019 95.6468 74.3717 95.9906 73.9728C97.5227 72.1696 99.6261 71.1863 101.755 71.5105C103.883 71.8348 105.592 73.3853 106.53 75.5379C106.808 76.1913 107.251 76.7612 107.815 77.1916C108.38 77.6219 109.046 77.8981 109.749 77.9929L109.806 78.0016C111.461 78.2536 112.718 79.8208 113.126 81.8881Z" fill="black"/>
<path d="M271.639 51.3701L264.155 54.654L269.436 47.7572C268.408 46.6437 267.038 45.9051 265.543 45.6581L265.434 45.6414C264.959 45.5785 264.491 45.4712 264.036 45.3207L261.504 46.4365L262.766 44.7855C261.218 43.9616 259.969 42.6702 259.197 41.0947L254.665 43.1018L257.996 38.7449C256.025 35.4728 253.039 33.1972 249.453 32.651C245.156 31.9964 240.939 33.9706 237.861 37.5838C236.946 38.6669 235.761 39.4882 234.426 39.964C233.091 40.4399 231.655 40.5533 230.262 40.2928L230.034 40.258C225.29 39.5353 220.625 44.332 219.613 50.9755C218.601 57.6189 221.626 63.5871 226.37 64.3098C227.413 64.4653 228.479 64.3637 229.474 64.0138C231.209 63.4753 233.04 63.32 234.84 63.5586C236.64 63.7971 238.368 64.4239 239.902 65.3955C241.196 66.232 242.652 66.7861 244.175 67.0219C245.697 67.2577 247.252 67.1698 248.739 66.764C250.477 66.3049 252.294 66.225 254.066 66.5298C255.838 66.8347 257.524 67.5171 259.01 68.531C259.852 69.1482 260.829 69.5546 261.861 69.716C266.605 70.4388 271.27 65.642 272.282 58.9985C272.71 56.4418 272.489 53.8185 271.639 51.3701Z" fill="#F5F8FA"/>
<path d="M82.5982 205.825L75.1145 209.109L80.3956 202.212C79.3673 201.098 77.9975 200.36 76.5028 200.113L76.3931 200.096C75.9183 200.033 75.4505 199.926 74.9959 199.775L72.4637 200.891L73.7256 199.24C72.1776 198.416 70.9286 197.125 70.1562 195.549L65.6245 197.557L68.9558 193.2C66.9842 189.928 63.9986 187.652 60.4127 187.106C56.1158 186.451 51.8989 188.425 48.8201 192.039C47.9054 193.122 46.7204 193.943 45.3857 194.419C44.0511 194.895 42.6144 195.008 41.222 194.748L40.9938 194.713C36.2492 193.99 31.5844 198.787 30.5724 205.43C29.5604 212.074 32.5854 218.042 37.33 218.765C38.373 218.92 39.4383 218.818 40.4334 218.469C42.1683 217.93 43.9991 217.775 45.7996 218.013C47.6 218.252 49.3272 218.879 50.8619 219.85C52.156 220.687 53.6117 221.241 55.1341 221.477C56.6566 221.712 58.2117 221.625 59.6982 221.219C61.437 220.76 63.2539 220.68 65.026 220.985C66.798 221.289 68.4838 221.972 69.9693 222.986C70.8113 223.603 71.7889 224.009 72.8201 224.171C77.5647 224.894 82.2295 220.097 83.2415 213.453C83.6696 210.897 83.4484 208.273 82.5982 205.825Z" fill="#F5F8FA"/>
<path opacity="0.03" d="M256.12 67.0118C253.713 66.1648 251.109 66.0529 248.638 66.6902C247.153 67.1014 245.599 67.1941 244.076 66.9621C242.553 66.7302 241.097 66.1789 239.802 65.3443C238.268 64.3707 236.541 63.7428 234.74 63.5042C232.94 63.2656 231.108 63.422 229.374 63.9626C228.377 64.3107 227.31 64.412 226.266 64.2579C222.052 63.6161 219.193 58.8287 219.319 53.1112C220.255 52.6267 221.089 51.9641 221.772 51.1605C224.85 47.5517 229.067 45.5775 233.364 46.232C237.661 46.8866 241.067 49.9681 242.931 54.2983C243.487 55.6058 244.372 56.7466 245.5 57.6095C246.628 58.4723 247.96 59.0277 249.367 59.2214L249.476 59.2381C252.809 59.7368 255.305 62.8684 256.12 67.0118Z" fill="black"/>
<path opacity="0.03" d="M67.0794 221.467C64.6725 220.62 62.0682 220.508 59.5971 221.145C58.1126 221.556 56.5582 221.649 55.0356 221.417C53.513 221.185 52.0567 220.634 50.7619 219.799C49.228 218.826 47.5007 218.198 45.6999 217.959C43.8992 217.72 42.068 217.877 40.3334 218.417C39.3363 218.765 38.27 218.867 37.2256 218.713C33.012 218.071 30.153 213.283 30.2785 207.566C31.2149 207.081 32.0481 206.419 32.7313 205.615C35.8094 202.006 40.0262 200.032 44.3232 200.687C48.6201 201.341 52.0263 204.423 53.8906 208.753C54.4466 210.061 55.3318 211.201 56.4597 212.064C57.5876 212.927 58.9197 213.482 60.3262 213.676L60.4359 213.693C63.7686 214.192 66.2645 217.323 67.0794 221.467Z" fill="black"/>
</g>
<defs>
<clipPath id="clip0">
<rect width="417.147" height="270.744" fill="white" transform="translate(40.814 0.864532) rotate(8.66128)"/>
</clipPath>
</defs>
</svg>
